<?xml version="1.0" encoding="UTF-8" standalone="no"?>
<svg
   width="441.18542"
   height="344.75351"
   viewBox="0 0 441.18542 344.75351"
   version="1.1"
   id="svg2"
   sodipodi:docname="zirkelneu.svg"
   inkscape:version="1.4.3 (0d15f75042, 2025-12-25)"
   xmlns:inkscape="http://www.inkscape.org/namespaces/inkscape"
   xmlns:sodipodi="http://sodipodi.sourceforge.net/DTD/sodipodi-0.dtd"
   xmlns="http://www.w3.org/2000/svg"
   xmlns:svg="http://www.w3.org/2000/svg">
  <defs
     id="defs2" />
  <sodipodi:namedview
     id="namedview2"
     pagecolor="#fcfcfc"
     bordercolor="#000000"
     borderopacity="0.25"
     inkscape:showpageshadow="2"
     inkscape:pageopacity="0.0"
     inkscape:pagecheckerboard="0"
     inkscape:deskcolor="#d1d1d1"
     inkscape:zoom="1.4142136"
     inkscape:cx="-148.13887"
     inkscape:cy="67.528697"
     inkscape:window-width="3072"
     inkscape:window-height="1656"
     inkscape:window-x="0"
     inkscape:window-y="0"
     inkscape:window-maximized="1"
     inkscape:current-layer="g2" />
  <g
     id="g2"
     transform="translate(3.6642088,4.8051274)">
    <path
       id="path1"
       style="display:inline;opacity:1"
       d="m 365.96584,-2.4504975 c -3.94377,3.43375513 -20.74977,13.7089845 -27.25977,16.9589845 -12.23,6.1 -23.99023,8.650937 -50.74023,10.960937 -10.96,0.95 -20.25,1.069922 -34.5,0.419922 -28.44,-1.29 -87.14953,-1.240136 -104.51954,0.08984 -31.43999,2.4 -64.760462,13.111093 -80.480462,25.871093 -14.11,11.45 -22.88914,25.218438 -25.11914,39.398438 -1.32,8.410001 -0.561485,27.150163 1.478515,36.410163 0.74,3.37 2.76,9.16109 4.5,12.87109 10.98,23.47 27.810002,37.74984 58.749997,49.83984 13.9,5.43 14.39063,5.70883 14.39063,8.29883 0,1.28 -2.43993,8.51984 -5.41993,16.08984 -2.99,7.57 -6.66015,17.14172 -8.16015,21.26172 -3.33,9.16 -15.779531,35.30852 -21.519531,45.22852 -4.91,8.48 -15.680313,22.27992 -22.570313,28.91992 -6.37,6.15 -20.479687,15.14008 -27.179687,17.33008 -8.13,2.65 -19.170625,0.77047 -19.140625,-3.26953 0.01,-0.94 2.529844,-4.62899 5.589844,-8.20899 l 5.570312,-6.5 -0.439453,-7.30078 c -0.4,-6.65 -0.730781,-7.60953 -3.800781,-10.76953 -6.9,-7.12 -15.6202352,-6.75148 -22.7402348,0.97852 -5.72,6.21 -7.32,12.09062 -5.75,21.14062 1.4299998,8.25 3.44148432,12.39985 8.2714843,17.08985 7.6599995,7.44 14.0584375,8.76031 28.1484375,5.82031 13.91,-2.9 22.370078,-7.28946 34.580078,-17.93946 10.16,-8.86 17.081563,-16.35125 23.851563,-25.78125 9.769996,-13.63 24.719846,-46.26929 36.089846,-78.77929 2.03,-5.8 4.5496,-11.95946 5.5996,-13.68946 1.89001,-3.11 1.98877,-3.1396 8.21875,-2.5996 7.24002,0.63 19.66071,2.85992 20.47071,3.66992 0.31,0.3 -0.0302,6.08961 -0.74024,12.84961 -0.71,6.77 -1.31937,24.01054 -1.35937,38.31054 -0.05,22 0.2193,27.15 1.7793,33.5 4.27,17.45 9.68125,28.67875 18.28125,37.96875 9.97,10.76 19.25898,14.99953 32.95898,15.01953 12.25,0.02 18.55016,-3.03 29.91016,-14.5 11.82,-11.93 18.99961,-23.00875 27.34961,-42.21875 2.68,-6.18 5.45968,-11.94078 6.17968,-12.80078 2.83,-3.41 3.66078,-0.83023 10.05078,31.00977 2.44,12.21 5.60938,25.05156 7.10938,28.85156 1.45,3.67 5.12992,6.05883 8.16992,5.29883 2.9,-0.73 12.77031,-11.08063 22.07031,-23.14063 9.31,-12.07 11.68063,-15.96976 16.64063,-27.25976 7.02,-16.02 10.38937,-30.10914 12.10937,-50.61914 l 1.24024,-14.90039 5.42969,-7.57031 c 2.99,-4.16 6.94101,-10.72032 8.79101,-14.57032 2.86,-5.96 3.35938,-8.09828 3.35938,-14.23828 0,-9.59 -1.55953,-16.58109 -5.26953,-23.62109 -3.77001,-7.16 -8.72977,-11.70899 -12.75977,-11.70899 -2.42,0 -2.9707,0.41953 -2.9707,2.26953 0,1.25 1.13929,3.94 2.52929,6 5.6,8.23 6.81063,12.48047 6.89063,24.23047 0.08,10.41 -0.0804,11.28891 -2.90039,16.37891 -3.41,6.15 -6.57907,8.74109 -9.03906,7.37109 -0.90001,-0.5 -3.28079,-3.13007 -5.30079,-5.83007 -8.84,-11.82 -27.48054,-14.26 -36.31054,-4.75 -3.92,4.22 -4.86914,6.64921 -4.86914,12.44921 0,7.11 3.04078,13.12993 8.55078,16.91993 5.23,3.6 11.70836,4.96093 23.56836,4.96093 8.74,0 8.85172,0.0282 9.51172,2.65821 0.98,3.91 -1.19102,21.40086 -4.04102,32.63086 -3.02,11.84 -8.70016,25.03921 -14.41016,33.44921 -6.88,10.12 -10.18945,10.37993 -11.68945,0.91993 -0.37,-2.29 -1.99109,-10.23821 -3.62109,-17.65821 -1.63,-7.42 -3.66907,-16.88 -4.53907,-21 -3.23,-15.32 -5.53054,-23.55 -7.06054,-25.25 -3.11,-3.45 -17.7,-1.14148 -22,3.47852 -2.94,3.16 -4.92969,8.94047 -6.17969,17.98047 -1.37,9.92 -4.05937,17.65101 -10.85937,31.29101 -7.21,14.44 -14.78063,25.79961 -21.39063,32.09961 -6.65,6.33 -10.6093,8.41938 -17.2793,9.10938 -11.74,1.21 -18.46968,-5.44899 -24.92968,-24.70899 -2.91,-8.68 -3.81165,-13.4914 -5.18165,-27.6914 -1.53998,-15.99 -1.53818,-18.74 0.0117,-39.5 1.92,-25.9 2.90969,-33.1993 4.92969,-36.2793 0.83,-1.26 4.1993,-3.23102 7.7793,-4.54102 33.73,-12.34 56.52078,-31.45875 70.30078,-58.96875 10.39,-20.74 12.35852,-42.810857 4.97852,-55.630857 -4.32,-7.49 -14.39852,-14.28914 -25.72852,-17.36914 -13.73,-3.73 -35.21125,2.180546 -54.78125,15.060546 -17.13,11.28 -40.77961,41.639921 -51.34961,65.919921 -1.56,3.57 -3.51938,8.07 -4.35938,10 -0.85,1.93 -4.39085,9.46 -7.88085,16.75 -4.93,10.31 -6.7693,13.25 -8.2793,13.25 -1.08,0 -6.13977,-1.40109 -11.25977,-3.12109 -30.459983,-10.19 -51.889839,-29.33906 -56.839839,-50.78906 -1.71,-7.41 -0.741172,-22.58 1.798829,-28.25 3.75,-8.370025 17.420468,-24.309927 25.230468,-29.419927 10.44,-6.83 38.450002,-15.340312 57.000002,-17.320312 16.64,-1.78 51.19078,-3.101094 81.55078,-3.121094 59.11,-0.03 79.18922,-1.879297 98.44922,-9.029297 26.3,-9.76 38.18914,-18.749219 46.86914,-35.4492184 3.77047,-7.23337371 4.18367,-10.3107535 1.39237,-11.2382523 -1.51591,-0.5037084 -2.65081,1.3005096 -3.76149,2.2675532 z m 56.79101,26.4902345 c -4.02,0.03 -10.87,3.399531 -12.75,6.269531 -0.88,1.36 -2.0007,3.820469 -2.4707,5.480469 -1.08,3.75 -3.65055,31.130468 -5.06055,53.730468 -3.28,52.940005 -8.33931,116.969995 -13.02929,164.999995 -1.97001,20.18 -2.54055,36.61008 -1.31055,37.83008 1.16,1.17 4.04031,0.71969 5.32031,-0.82031 0.68,-0.81 2.50078,-8.8 4.05078,-17.75 1.55,-8.94 3.5282,-20.08977 4.40821,-24.75977 0.88,-4.68 2.27156,-13.45 3.10156,-19.5 0.83,-6.05 2.56867,-16.4 3.88867,-23 2.1,-10.59 5.55086,-28.78 8.63086,-45.5 0.55,-3.02 2.08039,-10.68 3.40039,-17 1.31,-6.32 3.35883,-16.23 4.54883,-22 1.2,-5.78 3.51992,-16.79999 5.16992,-24.499995 6.2,-29 6.23794,-31.969775 6.41797,-48.166015 0.0759,-6.828791 1.85601,-14.909226 -2.25391,-20.363282 -2.6157,-3.471164 -4.88578,-4.572751 -12.0625,-4.951171 z m -171.3164,51.044921 c 2.995,-0.11875 5.86117,0.31875 7.82617,1.34375 3.12,1.63 7.41842,6.050391 9.14844,9.400391 2.17,4.22 2.52156,19.070701 0.60156,25.720701 -3.67,12.75 -16.12102,34.23047 -25.79102,44.48047 -8.61,9.11 -24.35,20.34945 -34.25,24.43945 -4.99,2.06 -10.61976,3.35078 -12.25976,2.80078 -3.67,-1.23 2.36062,-25.28164 15.14062,-60.43164 8.12,-22.33 20.56852,-40.719761 30.97852,-45.759761 2.485,-1.2 5.61047,-1.875391 8.60547,-1.994141 z m -46.71875,9.966797 c 0.50795,0.0064 0.74414,0.324375 0.74414,0.9375 0,0.53 -3.85055,6.860542 -8.56055,14.060545 -10.5,16.07 -16.45906,30.8507 -25.78906,63.9707 -4.32,15.33 -6.08008,19.62899 -8.58008,20.95899 -2.35,1.26 -14.70031,1.25856 -17.82031,0.01 -4.17,-1.68 -3.29993,-5.79875 5.58007,-26.46875 7.23,-16.84 12.94094,-27.74101 20.71094,-39.54101 8.77,-13.31 14.68992,-20.130778 23.91992,-27.550782 5.42657,-4.37 8.49682,-6.393223 9.79493,-6.376953 z M 320.90334,197.15497 c 0.43344,-0.0227 0.87675,-0.0218 1.32812,0.004 7.82374,0.4383 17.9468,7.85031 17.04492,14.17968 -0.74,5.19 -13.43047,7.40024 -21.48047,3.74024 -8.44,-3.83 -8.66921,-12.64977 -0.44921,-17.00977 1.04765,-0.55546 2.25629,-0.84589 3.55664,-0.91406 z m 62.92968,109.08789 c -1.85259,-0.016 -3.72773,0.33305 -5.53711,1.10742 -6.49,2.79 -11.83007,10.73914 -11.83007,17.61914 0,3.15 4.81914,11.10992 8.11914,13.41992 2.93,2.05 7.86015,2.07998 12.66015,0.0801 7.45,-3.11 12.22071,-9.53922 12.22071,-16.44922 0,-8.79125 -7.6049,-15.70799 -15.63282,-15.77734 z"
       sodipodi:nodetypes="scccccccccsccccccccccsccccccccccccccccccccccccccscssccccccscsccccscccccccccccccccccccscsccccccssccccccccccsccccaaccsccccccccccscccccccccccccccsscsccss" />
  </g>
</svg>
